<?xml version="1.0" encoding="UTF-8" standalone="no"?>
<svg width="265px" height="81px" viewBox="0 0 265 81" version="1.1" xmlns="http://www.w3.org/2000/svg" xmlns:xlink="http://www.w3.org/1999/xlink" xmlns:sketch="http://www.bohemiancoding.com/sketch/ns">
    <!-- Generator: Sketch 3.5.1 (25234) - http://www.bohemiancoding.com/sketch -->
    <title>Group</title>
    <desc>Created with Sketch.</desc>
    <defs></defs>
    <g id="Page-1" stroke="none" stroke-width="1" fill="none" fill-rule="evenodd" sketch:type="MSPage">
        <g id="Group" sketch:type="MSLayerGroup" transform="translate(2.000000, 2.000000)">
            <g id="Page-1" transform="translate(1.000000, 17.000000)" fill="#4990E2" sketch:type="MSShapeGroup">
                <path d="M35.348,26.863 C35.555,26.863 35.762,26.82 35.961,26.73 C36.715,26.391 37.055,25.504 36.715,24.746 L35.84,22.797 C35.5,22.039 34.613,21.703 33.855,22.043 C33.102,22.383 32.762,23.27 33.102,24.027 L33.977,25.977 C34.227,26.531 34.773,26.863 35.348,26.863 L35.348,26.863 Z" id="Fill-1"></path>
                <path d="M67.547,1.094 C67.211,0.387 66.383,0.055 65.652,0.336 L35.066,12.113 C34.664,11.906 34.238,11.738 33.805,11.609 C33.793,11.559 33.789,11.508 33.773,11.457 L31.617,4.484 C31.445,3.922 30.957,3.512 30.371,3.441 C29.793,3.371 29.215,3.641 28.906,4.145 L23.016,13.734 C22.98,13.793 22.953,13.859 22.926,13.922 L18.172,15.586 C13.133,17.348 9.098,21.203 7.102,26.152 L0.414,42.77 C0.16,43.398 0.359,44.117 0.898,44.523 L23.125,61.375 C23.391,61.574 23.711,61.68 24.031,61.68 C24.238,61.68 24.449,61.637 24.645,61.547 C25.145,61.32 25.484,60.844 25.527,60.297 L26.68,45.52 C26.746,44.691 26.125,43.973 25.301,43.906 C24.473,43.844 23.754,44.461 23.688,45.285 L22.75,57.324 L3.625,42.828 L9.887,27.273 C11.559,23.121 14.938,19.895 19.16,18.414 L30.254,14.535 C32.109,13.887 34.18,14.566 35.285,16.191 L47.457,34.051 C48.941,36.23 49.062,39.012 47.773,41.312 L46.52,43.547 C45.754,44.914 44.062,45.422 42.672,44.699 L26.5,36.336 C25.527,35.832 24.891,34.883 24.801,33.793 L23.996,24.359 C23.926,23.535 23.203,22.918 22.375,22.992 C21.551,23.062 20.938,23.789 21.008,24.613 L21.812,34.047 C21.992,36.172 23.23,38.023 25.125,39 L41.297,47.363 C44.133,48.832 47.578,47.797 49.141,45.012 L50.395,42.777 C52.246,39.477 52.07,35.488 49.941,32.359 L40.297,18.211 L66.934,3.039 C67.617,2.652 67.883,1.801 67.547,1.094 L67.547,1.094 Z M29.266,11.703 L27.383,12.363 L29.734,8.535 L30.613,11.375 C30.16,11.441 29.707,11.547 29.266,11.703 L29.266,11.703 Z M38.602,15.727 L37.766,14.504 C37.727,14.445 37.684,14.395 37.645,14.34 L48.121,10.305 L38.602,15.727 Z" id="Fill-2"></path>
            </g>
            <g id="Page-1" stroke="#4990E2" stroke-width="4.5" sketch:type="MSShapeGroup" stroke-linecap="round" stroke-linejoin="round">
                <path d="M12.5866981,12.4082075 L6.82207547,6.64358491" id="Stroke-3"></path>
                <path d="M29.3689623,12.6064151 L34.9467925,7.02858491" id="Stroke-4"></path>
                <path d="M12.6717925,28.4650943 L7.0659434,34.0709434" id="Stroke-5"></path>
                <path d="M8.13169811,20.9778302 L0.348679245,20.9778302" id="Stroke-6"></path>
                <path d="M21.2528302,0.75754717 L21.2528302,7.77886792" id="Stroke-7"></path>
            </g>
            <text id="MagicMock.js" sketch:type="MSTextLayer" font-family="Arial" font-size="30" font-weight="bold" fill="#4990E2">
                <tspan x="69" y="56">MagicMock.js</tspan>
            </text>
        </g>
    </g>
</svg>